<svg xmlns="http://www.w3.org/2000/svg" viewBox="0 0 512 512"><path fill="#f7267a" d="M206.082 72.35c-73.74 0-133.733 59.993-133.733 133.733s59.993 133.733 133.733 133.733 133.733-59.992 133.733-133.733S279.824 72.35 206.082 72.35zm81.504 133.733c0-44.941-36.562-81.504-81.504-81.504V94.162c61.713 0 111.921 50.208 111.921 111.921h-30.417z"/><path fill="#f7267a" d="M496.633 422.44l-93.298-93.299-26.343 26.343-14.898-14.898c31.186-36.123 50.072-83.148 50.072-134.504C412.166 92.449 319.717 0 206.083 0S0 92.449 0 206.083s92.449 206.082 206.082 206.082c51.355 0 98.38-18.885 134.504-50.072l14.898 14.898-26.343 26.343 93.299 93.298c9.909 9.909 23.084 15.367 37.097 15.367 14.013 0 27.188-5.457 37.097-15.366C506.542 486.725 512 473.55 512 459.537c0-14.013-5.458-27.189-15.367-37.097zm-290.551-52.207c-90.512 0-164.15-73.637-164.15-164.15s73.638-164.15 164.15-164.15 164.15 73.638 164.15 164.15-73.636 164.15-164.15 164.15z"/></svg>